<svg id="svg" version="1.1" xmlns="http://www.w3.org/2000/svg" xmlns:xlink="http://www.w3.org/1999/xlink" width="400" height="400" viewBox="0, 0, 400,400"><g id="svgg"><path id="path0" d="M97.732 62.881 C 97.802 63.184,97.291 63.545,96.484 63.761 C 95.032 64.152,72.600 86.045,70.396 89.223 L 69.336 90.752 69.141 103.872 L 68.945 116.992 45.703 117.042 C 32.920 117.069,21.869 117.113,21.145 117.140 C 20.175 117.175,19.432 117.585,18.313 118.704 L 16.797 120.221 16.797 129.459 C 16.797 144.419,13.783 142.965,44.810 142.967 L 69.112 142.969 69.118 149.219 L 69.124 155.469 59.543 155.469 C 45.000 155.469,46.289 153.304,46.289 177.734 C 46.289 196.255,46.291 196.292,47.168 197.846 C 47.651 198.702,48.047 199.269,48.047 199.106 C 48.047 198.943,48.522 199.122,49.103 199.503 C 50.026 200.108,51.353 200.211,59.650 200.318 L 69.141 200.441 69.141 229.725 C 69.141 254.414,69.229 259.222,69.707 260.364 C 70.018 261.109,70.228 261.719,70.174 261.719 C 70.119 261.719,75.282 266.907,81.646 273.248 C 88.011 279.589,93.118 284.877,92.996 284.999 C 92.873 285.121,92.949 285.168,93.164 285.104 C 93.379 285.039,94.165 285.205,94.911 285.472 C 95.892 285.823,100.030 285.959,109.866 285.964 L 123.465 285.970 123.421 293.567 L 123.377 301.165 120.282 301.132 C 118.580 301.113,117.188 300.960,117.188 300.790 C 117.188 300.620,116.849 300.393,116.435 300.285 C 115.881 300.140,115.744 300.245,115.912 300.683 C 116.065 301.083,115.959 301.213,115.590 301.079 C 115.287 300.969,115.087 300.668,115.146 300.410 C 115.205 300.153,115.071 300.055,114.847 300.193 C 114.623 300.332,114.542 300.608,114.665 300.808 C 114.789 301.008,114.718 301.172,114.509 301.172 C 114.299 301.172,114.063 300.977,113.984 300.740 C 113.904 300.502,113.231 300.240,112.486 300.158 C 111.643 300.064,111.329 300.133,111.654 300.340 C 112.053 300.595,111.990 300.721,111.386 300.879 C 110.916 301.002,110.513 300.866,110.389 300.543 C 110.274 300.244,109.956 300.003,109.680 300.006 C 109.289 300.011,109.293 300.084,109.701 300.342 C 110.123 300.610,110.110 300.716,109.628 300.901 C 109.265 301.040,108.965 300.871,108.859 300.467 C 108.697 299.854,108.681 299.855,108.639 300.478 C 108.598 301.086,107.980 301.151,102.286 301.150 C 96.750 301.148,96.069 301.080,96.719 300.593 C 97.427 300.064,97.421 300.049,96.582 300.260 C 96.099 300.382,95.703 300.631,95.703 300.814 C 95.703 300.997,94.395 301.120,92.797 301.087 C 90.342 301.037,89.993 300.950,90.551 300.526 C 91.170 300.056,91.170 300.024,90.547 300.012 C 90.181 300.006,89.701 300.308,89.480 300.684 C 89.128 301.280,89.027 301.292,88.685 300.781 C 88.470 300.459,88.291 300.393,88.287 300.635 C 88.280 301.150,86.412 301.233,86.103 300.732 C 85.986 300.544,85.716 300.391,85.501 300.391 C 85.286 300.391,85.201 300.537,85.311 300.716 C 85.422 300.895,85.249 301.042,84.927 301.042 C 84.571 301.042,84.428 300.815,84.562 300.466 C 84.735 300.017,84.666 299.987,84.250 300.332 C 83.957 300.575,83.573 300.644,83.398 300.485 C 83.222 300.326,83.197 300.402,83.342 300.656 C 83.796 301.448,79.253 301.259,78.659 300.460 C 78.254 299.916,78.050 299.888,77.464 300.295 C 76.173 301.193,75.684 301.299,74.954 300.843 C 74.090 300.304,73.701 300.260,73.996 300.736 C 74.113 300.926,73.464 301.272,72.554 301.504 C 71.117 301.871,69.563 303.264,60.767 312.074 C 55.195 317.655,50.465 322.117,50.257 321.988 C 50.049 321.859,49.985 321.926,50.115 322.136 C 50.245 322.345,48.765 324.086,46.826 326.005 C 41.831 330.947,41.797 331.035,41.797 338.765 C 41.797 347.267,42.355 348.047,48.437 348.047 C 53.954 348.047,55.078 346.775,55.078 340.537 L 55.078 336.909 66.506 325.486 L 77.935 314.063 100.703 314.063 L 123.472 314.062 123.417 320.166 C 123.366 325.862,123.419 326.346,124.210 327.416 C 125.190 328.741,127.316 330.142,127.848 329.813 C 128.048 329.689,128.366 329.830,128.553 330.126 C 128.800 330.516,128.896 330.529,128.900 330.176 C 128.904 329.878,129.448 329.688,130.296 329.688 C 131.295 329.688,131.609 329.825,131.411 330.176 C 131.191 330.566,131.241 330.566,131.661 330.176 C 133.356 328.603,133.847 329.446,133.938 334.082 C 134.077 341.189,134.731 341.797,142.227 341.797 C 145.878 341.797,146.856 341.905,146.628 342.285 C 146.410 342.648,146.496 342.643,146.963 342.264 C 147.932 341.479,164.663 341.660,164.008 342.448 C 163.654 342.875,163.663 343.110,164.050 343.474 C 164.446 343.846,164.513 343.823,164.373 343.363 C 163.951 341.981,164.967 341.797,173.038 341.797 C 184.095 341.797,184.375 341.613,184.375 334.373 L 184.375 329.857 186.148 329.780 C 187.406 329.725,187.986 329.871,188.143 330.281 C 188.265 330.599,188.631 330.859,188.957 330.859 C 189.414 330.859,189.447 330.737,189.105 330.324 C 188.732 329.875,191.253 329.014,192.115 329.297 C 193.033 329.597,194.544 325.741,194.583 322.999 C 194.604 321.510,194.758 320.797,195.024 320.962 C 195.290 321.126,195.313 321.022,195.088 320.666 C 194.899 320.364,194.713 318.755,194.676 317.090 L 194.608 314.063 218.105 314.081 L 241.602 314.100 243.164 316.279 C 247.354 322.123,254.615 327.474,261.405 329.722 C 263.619 330.455,265.485 331.177,265.553 331.326 C 265.620 331.475,265.928 331.500,266.236 331.382 C 266.545 331.263,267.104 331.292,267.480 331.445 C 268.968 332.052,305.823 332.237,309.751 331.658 C 311.139 331.453,312.354 331.364,312.449 331.460 C 312.545 331.556,312.857 331.440,313.143 331.203 C 313.428 330.966,313.928 330.874,314.253 330.999 C 314.578 331.123,314.844 331.097,314.844 330.940 C 314.844 330.637,319.912 329.062,320.410 329.210 C 320.571 329.258,320.703 329.111,320.703 328.883 C 320.703 328.656,320.879 328.578,321.094 328.711 C 321.309 328.844,321.484 328.778,321.484 328.565 C 321.484 328.352,321.834 328.067,322.260 327.931 C 329.003 325.791,339.238 314.278,341.924 305.811 C 342.097 305.267,343.115 305.149,349.090 304.982 C 358.080 304.731,362.250 303.485,367.244 299.557 C 368.027 298.941,368.818 298.428,369.002 298.416 C 370.138 298.342,374.624 291.411,376.067 287.500 L 377.148 284.570 377.148 264.258 L 377.148 243.945 375.873 240.625 C 372.968 233.060,367.385 227.791,360.367 225.988 C 358.331 225.466,351.185 225.391,303.483 225.391 L 248.928 225.391 248.900 212.891 L 248.872 200.391 257.542 200.321 C 262.310 200.283,266.519 200.253,266.895 200.254 C 267.271 200.256,267.578 200.149,267.578 200.018 C 267.578 199.886,268.084 199.479,268.703 199.114 C 271.076 197.711,271.094 197.557,271.092 178.066 C 271.089 159.184,270.984 157.979,269.225 156.665 C 268.641 156.229,268.006 155.738,267.813 155.573 C 267.620 155.408,263.270 155.323,258.145 155.385 C 251.915 155.459,248.828 155.362,248.828 155.092 C 248.828 154.869,249.048 154.685,249.316 154.682 C 249.651 154.677,249.670 154.585,249.379 154.389 C 249.078 154.186,248.943 145.162,248.918 123.692 C 248.899 106.966,248.762 92.552,248.613 91.660 C 248.371 90.211,247.581 89.271,241.158 82.785 C 237.206 78.796,234.108 75.368,234.272 75.168 C 234.436 74.968,234.406 74.940,234.204 75.106 C 234.003 75.271,231.359 72.948,228.329 69.944 C 225.067 66.709,222.229 64.235,221.372 63.877 C 220.085 63.339,213.171 63.272,159.474 63.272 C 120.153 63.272,99.228 63.139,99.609 62.892 C 99.962 62.663,100.010 62.510,99.730 62.506 C 99.474 62.503,99.151 62.684,99.012 62.910 C 98.840 63.188,98.575 63.166,98.185 62.843 C 97.730 62.466,97.637 62.473,97.732 62.881 M316.117 70.294 C 312.393 71.203,307.238 78.045,305.132 84.873 C 302.396 93.748,303.343 103.800,307.798 113.156 C 308.839 115.343,309.591 117.232,309.468 117.355 C 309.345 117.478,309.424 117.578,309.643 117.578 C 310.187 117.578,312.331 122.334,313.068 125.180 C 314.573 130.983,312.851 137.102,308.020 143.116 C 305.786 145.898,304.842 148.225,305.264 149.907 C 305.461 150.691,305.387 150.833,304.882 150.640 C 304.519 150.500,304.356 150.562,304.495 150.786 C 304.626 150.998,304.943 151.179,305.199 151.187 C 305.455 151.195,306.016 151.752,306.445 152.424 C 311.632 160.535,323.978 150.414,326.556 135.938 C 326.804 134.541,327.130 132.783,327.279 132.031 C 327.810 129.360,326.301 120.870,324.634 117.146 C 324.079 115.905,323.989 115.316,324.298 114.944 C 324.615 114.561,324.583 114.488,324.168 114.647 C 323.405 114.940,319.457 106.963,318.174 102.536 C 316.054 95.219,317.215 89.742,322.654 81.410 C 326.793 75.070,322.997 68.615,316.117 70.294 M226.252 86.629 L 235.946 96.302 235.844 112.897 L 235.742 129.492 208.496 129.592 L 181.250 129.693 181.241 125.686 C 181.235 122.598,181.063 121.305,180.491 120.045 C 179.075 116.927,183.083 117.162,129.889 117.078 L 82.461 117.003 82.447 106.451 L 82.432 95.898 91.893 86.429 L 101.354 76.960 158.957 76.958 L 216.559 76.957 226.252 86.629 M121.582 78.004 C 121.958 78.102,122.573 78.102,122.949 78.004 C 123.325 77.905,123.018 77.825,122.266 77.825 C 121.514 77.825,121.206 77.905,121.582 78.004 M132.910 78.004 C 133.286 78.102,133.901 78.102,134.277 78.004 C 134.653 77.905,134.346 77.825,133.594 77.825 C 132.842 77.825,132.534 77.905,132.910 78.004 M165.527 78.010 C 166.011 78.103,166.802 78.103,167.285 78.010 C 167.769 77.917,167.373 77.841,166.406 77.841 C 165.439 77.841,165.044 77.917,165.527 78.010 M234.856 117.969 C 234.856 118.721,234.937 119.028,235.035 118.652 C 235.133 118.276,235.133 117.661,235.035 117.285 C 234.937 116.909,234.856 117.217,234.856 117.969 M234.735 124.121 C 234.921 125.470,234.949 125.497,235.077 124.464 C 235.154 123.847,235.063 123.188,234.875 123.000 C 234.678 122.803,234.618 123.282,234.735 124.121 M235.938 149.219 L 235.938 155.469 200.469 155.469 C 172.617 155.469,164.894 155.364,164.508 154.980 C 164.114 154.589,164.058 154.609,164.226 155.078 C 164.363 155.461,163.920 155.982,162.947 156.580 C 161.160 157.681,161.287 157.205,161.070 163.574 L 160.894 168.750 152.322 168.750 L 143.750 168.750 143.750 164.043 C 143.750 154.711,146.609 155.469,111.387 155.469 L 82.464 155.469 82.486 149.837 C 82.498 146.740,82.406 144.040,82.280 143.837 C 81.770 143.011,85.473 142.969,159.245 142.969 L 235.938 142.969 235.938 149.219 M234.856 144.922 C 234.856 145.674,234.937 145.981,235.035 145.605 C 235.133 145.229,235.133 144.614,235.035 144.238 C 234.937 143.862,234.856 144.170,234.856 144.922 M69.081 177.735 L 69.037 187.110 63.913 187.083 L 58.789 187.056 58.644 178.138 C 58.564 173.234,58.618 169.027,58.764 168.790 C 58.936 168.512,60.822 168.359,64.078 168.359 L 69.125 168.359 69.081 177.735 M130.469 189.195 L 130.469 210.030 129.085 210.082 C 128.100 210.119,127.779 209.997,127.971 209.657 C 128.172 209.299,128.108 209.302,127.714 209.668 C 127.305 210.047,122.171 210.156,104.808 210.156 L 82.429 210.156 82.429 189.258 L 82.429 168.359 106.449 168.359 L 130.469 168.359 130.469 189.195 M235.938 189.266 L 235.938 210.172 205.273 210.143 L 174.609 210.113 174.609 189.236 L 174.609 168.359 205.273 168.359 L 235.938 168.359 235.938 189.266 M258.203 177.734 L 258.203 187.109 253.510 187.109 L 248.817 187.109 248.843 177.734 L 248.868 168.359 253.536 168.359 L 258.203 168.359 258.203 177.734 M257.122 173.828 C 257.122 174.580,257.202 174.888,257.301 174.512 C 257.399 174.136,257.399 173.521,257.301 173.145 C 257.202 172.769,257.122 173.076,257.122 173.828 M144.543 182.715 C 144.554 183.323,144.595 183.330,144.919 182.775 C 145.233 182.238,146.358 182.152,153.103 182.152 L 160.923 182.152 161.028 201.134 C 161.140 221.506,161.103 220.924,162.380 221.974 C 164.698 223.879,163.642 223.828,200.969 223.828 L 235.947 223.828 235.844 238.957 L 235.742 254.086 234.570 254.875 C 233.926 255.309,231.904 257.269,230.078 259.231 C 228.252 261.193,226.538 262.819,226.270 262.844 C 226.001 262.870,225.820 263.022,225.868 263.184 C 225.916 263.345,223.831 265.547,221.235 268.078 L 216.515 272.678 201.104 272.631 C 184.602 272.581,183.662 272.678,182.340 274.566 C 182.024 275.017,181.667 275.287,181.547 275.167 C 181.427 275.046,181.338 275.179,181.351 275.462 C 181.363 275.745,181.345 285.161,181.312 296.387 L 181.250 316.797 178.088 316.797 C 172.604 316.797,171.512 318.105,171.427 324.771 L 171.375 328.906 158.711 328.906 L 146.046 328.906 146.168 324.413 C 146.234 321.942,146.169 319.921,146.022 319.921 C 145.876 319.922,145.640 319.558,145.499 319.114 C 145.005 317.556,143.063 316.800,139.551 316.798 L 136.328 316.797 136.327 296.582 C 136.325 269.802,138.609 272.656,117.177 272.656 C 106.675 272.656,102.374 272.533,102.557 272.237 C 102.699 272.006,102.445 272.049,101.992 272.332 C 101.221 272.813,100.740 272.424,94.627 266.367 C 91.029 262.804,86.813 258.691,85.258 257.227 L 82.430 254.567 82.398 250.623 C 82.380 248.454,82.357 246.328,82.347 245.898 C 82.336 245.469,82.359 240.333,82.398 234.485 L 82.468 223.852 111.271 223.742 C 143.323 223.620,141.263 223.800,142.986 220.975 C 143.713 219.783,143.747 218.872,143.749 200.879 C 143.749 188.575,143.886 182.031,144.141 182.031 C 144.355 182.031,144.537 182.339,144.543 182.715 M256.445 184.674 C 256.996 185.078,257.113 185.938,256.618 185.938 C 256.390 185.938,256.327 186.137,256.478 186.381 C 256.654 186.667,256.929 186.494,257.249 185.895 C 257.624 185.194,257.635 184.895,257.291 184.677 C 256.682 184.289,255.918 184.287,256.445 184.674 M159.664 191.363 C 159.558 191.769,159.598 192.307,159.753 192.558 C 159.911 192.813,160.051 192.485,160.070 191.820 C 160.109 190.462,159.947 190.280,159.664 191.363 M234.864 193.945 C 234.868 194.805,234.948 195.110,235.042 194.624 C 235.135 194.138,235.132 193.435,235.034 193.062 C 234.936 192.688,234.860 193.086,234.864 193.945 M222.266 224.616 C 221.354 224.915,221.372 224.933,222.532 224.887 C 223.215 224.860,223.688 224.699,223.583 224.528 C 223.477 224.358,223.358 224.236,223.317 224.258 C 223.276 224.279,222.803 224.440,222.266 224.616 M89.362 224.892 C 90.065 224.979,91.119 224.978,91.706 224.888 C 92.293 224.799,91.719 224.728,90.430 224.730 C 89.141 224.733,88.660 224.806,89.362 224.892 M109.478 224.890 C 110.072 224.979,110.951 224.977,111.431 224.884 C 111.912 224.792,111.426 224.718,110.352 224.721 C 109.277 224.724,108.884 224.800,109.478 224.890 M124.126 224.886 C 124.612 224.979,125.315 224.976,125.688 224.878 C 126.062 224.780,125.664 224.704,124.805 224.708 C 123.945 224.712,123.640 224.792,124.126 224.886 M127.441 224.889 C 128.032 224.979,128.999 224.979,129.590 224.889 C 130.181 224.800,129.697 224.726,128.516 224.726 C 127.334 224.726,126.851 224.800,127.441 224.889 M132.134 224.890 C 132.728 224.979,133.607 224.977,134.087 224.884 C 134.568 224.792,134.082 224.718,133.008 224.721 C 131.934 224.724,131.541 224.800,132.134 224.890 M173.145 224.879 C 173.521 224.977,174.136 224.977,174.512 224.879 C 174.888 224.780,174.580 224.700,173.828 224.700 C 173.076 224.700,172.769 224.780,173.145 224.879 M191.704 224.886 C 192.190 224.979,192.893 224.976,193.266 224.878 C 193.640 224.780,193.242 224.704,192.383 224.708 C 191.523 224.712,191.218 224.792,191.704 224.886 M216.895 224.879 C 217.271 224.977,217.886 224.977,218.262 224.879 C 218.638 224.780,218.330 224.700,217.578 224.700 C 216.826 224.700,216.519 224.780,216.895 224.879 M234.635 228.584 C 234.512 229.051,234.562 229.701,234.745 230.028 C 234.976 230.440,235.078 230.179,235.078 229.179 C 235.078 227.531,234.954 227.364,234.635 228.584 M234.856 234.375 C 234.856 235.127,234.937 235.435,235.035 235.059 C 235.133 234.683,235.133 234.067,235.035 233.691 C 234.937 233.315,234.856 233.623,234.856 234.375 M357.181 239.543 C 359.196 240.144,363.111 243.784,362.751 244.721 C 362.618 245.069,362.669 245.254,362.864 245.134 C 363.606 244.675,364.092 247.728,364.038 252.508 C 363.983 257.368,363.969 257.445,363.147 257.184 C 362.440 256.959,362.385 257.008,362.793 257.499 C 363.058 257.818,363.144 258.234,362.985 258.422 C 362.826 258.609,363.003 258.528,363.379 258.240 C 364.223 257.594,364.406 259.657,363.577 260.485 C 363.236 260.827,363.218 261.052,363.518 261.247 C 364.229 261.710,364.163 273.842,363.451 273.569 C 363.143 273.451,362.891 273.549,362.891 273.786 C 362.891 274.024,363.110 274.175,363.379 274.121 C 364.287 273.939,363.994 281.490,363.008 283.662 C 361.601 286.763,356.658 291.293,355.712 290.348 C 355.578 290.214,355.469 290.301,355.469 290.542 C 355.469 291.290,352.736 291.817,347.559 292.066 L 342.578 292.305 342.578 289.121 L 342.578 285.938 344.462 285.938 C 351.392 285.938,357.813 278.878,357.813 271.258 C 357.813 270.068,357.958 269.185,358.137 269.295 C 358.480 269.507,358.457 268.556,358.094 267.578 C 357.906 267.070,357.459 263.692,357.305 261.621 C 357.277 261.245,357.130 260.938,356.978 260.938 C 356.826 260.938,356.496 260.315,356.245 259.554 C 354.388 253.930,347.702 250.407,338.867 250.398 C 331.536 250.391,329.680 252.060,330.033 258.343 C 330.117 259.836,330.029 260.174,329.621 259.928 C 329.213 259.683,329.198 259.737,329.553 260.179 C 330.194 260.978,330.250 274.517,329.616 275.282 C 329.256 275.715,329.262 275.909,329.643 276.145 C 331.386 277.221,329.475 303.125,327.654 303.125 C 327.412 303.125,327.323 303.235,327.457 303.369 C 327.831 303.743,326.261 306.583,324.291 309.096 C 321.086 313.184,315.924 316.428,310.352 317.855 C 302.981 319.742,265.639 318.543,264.908 316.396 C 264.836 316.184,264.630 316.101,264.451 316.212 C 264.272 316.323,263.887 316.192,263.596 315.922 C 263.305 315.651,262.844 315.383,262.572 315.327 C 259.567 314.701,250.453 304.995,251.413 303.442 C 251.520 303.268,251.439 303.125,251.231 303.125 C 251.023 303.125,250.448 302.026,249.953 300.684 L 249.052 298.242 248.955 268.652 L 248.857 239.063 302.215 239.063 C 343.283 239.063,355.944 239.173,357.181 239.543 M297.472 239.834 C 296.791 240.078,296.826 240.134,297.774 240.315 C 298.364 240.428,298.958 240.341,299.093 240.122 C 299.229 239.902,299.152 239.839,298.922 239.981 C 298.692 240.123,298.445 240.086,298.373 239.899 C 298.301 239.711,297.896 239.682,297.472 239.834 M289.941 240.113 C 290.317 240.211,290.933 240.211,291.309 240.113 C 291.685 240.015,291.377 239.934,290.625 239.934 C 289.873 239.934,289.565 240.015,289.941 240.113 M299.609 239.987 C 299.609 240.271,301.578 240.526,301.740 240.263 C 301.828 240.122,301.384 239.967,300.754 239.919 C 300.125 239.871,299.609 239.902,299.609 239.987 M344.070 240.278 C 343.811 240.438,344.237 240.534,345.019 240.490 C 345.800 240.446,346.535 240.314,346.651 240.198 C 346.976 239.873,344.607 239.946,344.070 240.278 M129.850 241.518 C 124.942 244.379,124.935 251.120,129.838 253.494 C 132.483 254.774,185.517 254.759,188.165 253.477 C 192.779 251.244,193.059 244.878,188.676 241.895 L 187.384 241.016 159.024 241.029 C 137.506 241.040,130.468 241.158,129.850 241.518 M359.375 241.719 C 359.375 241.977,359.561 242.188,359.789 242.188 C 360.016 242.188,360.101 242.351,359.978 242.551 C 359.854 242.751,359.916 243.016,360.116 243.139 C 360.629 243.456,360.400 242.275,359.840 241.715 C 359.480 241.355,359.375 241.356,359.375 241.719 M362.711 247.435 C 362.817 248.280,362.989 249.057,363.093 249.160 C 363.450 249.518,363.268 247.069,362.894 246.484 C 362.632 246.076,362.577 246.364,362.711 247.435 M125.000 248.782 C 125.000 249.800,125.602 250.173,125.675 249.199 C 125.706 248.789,125.567 248.351,125.366 248.227 C 125.165 248.102,125.000 248.352,125.000 248.782 M172.982 254.992 C 172.625 255.064,172.225 255.401,172.095 255.742 C 171.903 256.240,171.965 256.271,172.414 255.898 C 172.846 255.540,173.011 255.549,173.151 255.941 C 173.382 256.590,173.940 256.091,173.765 255.391 C 173.692 255.099,173.340 254.919,172.982 254.992 M144.614 255.623 C 144.891 255.923,145.252 256.086,145.417 255.987 C 145.863 255.716,145.352 255.078,144.688 255.078 C 144.213 255.078,144.200 255.175,144.614 255.623 M166.406 255.357 C 166.729 255.476,167.196 255.734,167.446 255.931 C 167.731 256.156,168.007 256.114,168.190 255.818 C 168.367 255.531,168.315 255.450,168.056 255.610 C 167.823 255.754,167.522 255.693,167.387 255.475 C 167.252 255.257,166.844 255.092,166.481 255.109 C 165.944 255.134,165.930 255.180,166.406 255.357 M68.756 261.621 C 68.753 262.104,68.926 262.500,69.141 262.500 C 69.630 262.500,69.630 262.085,69.141 261.328 C 68.834 260.854,68.761 260.910,68.756 261.621 M344.518 264.427 C 344.740 264.843,344.898 265.766,344.869 266.478 C 344.831 267.395,344.766 267.517,344.646 266.895 C 344.553 266.411,344.313 266.016,344.113 266.016 C 343.628 266.016,343.650 266.192,344.336 267.834 C 345.488 270.590,344.615 273.869,342.996 272.869 C 342.742 272.711,342.683 264.431,342.932 263.770 C 343.086 263.360,344.191 263.818,344.518 264.427 M343.071 264.775 C 343.101 265.171,343.354 265.495,343.633 265.495 C 344.284 265.495,344.273 265.311,343.579 264.617 C 343.090 264.128,343.024 264.148,343.071 264.775 M362.653 269.325 C 362.795 270.288,363.281 270.498,363.281 269.596 C 363.281 269.131,363.121 268.750,362.925 268.750 C 362.729 268.750,362.607 269.009,362.653 269.325 M343.637 270.703 C 343.525 271.132,343.619 271.599,343.847 271.740 C 344.081 271.884,344.147 271.811,343.999 271.572 C 343.855 271.339,343.916 271.037,344.134 270.902 C 344.622 270.601,344.658 269.922,344.186 269.922 C 343.996 269.922,343.749 270.273,343.637 270.703 M235.938 286.882 L 235.938 301.107 231.762 301.141 C 228.811 301.165,227.496 301.031,227.276 300.685 C 227.028 300.295,226.964 300.296,226.959 300.692 C 226.954 301.081,225.032 301.179,218.137 301.143 C 210.745 301.104,209.354 301.008,209.531 300.548 C 209.651 300.234,209.501 300.000,209.180 300.000 C 208.863 300.000,208.708 300.235,208.825 300.538 C 209.098 301.249,199.580 301.353,199.127 300.644 C 198.913 300.310,198.839 300.313,198.834 300.656 C 198.830 300.983,198.485 301.019,197.649 300.779 C 196.925 300.572,196.557 300.582,196.695 300.806 C 196.819 301.007,196.388 301.172,195.736 301.172 L 194.550 301.172 194.594 293.555 L 194.638 285.938 208.257 285.938 C 215.747 285.938,221.955 285.981,222.053 286.035 C 222.152 286.089,222.491 285.781,222.807 285.352 C 223.338 284.629,223.402 284.622,223.646 285.252 C 223.791 285.626,224.086 285.824,224.301 285.691 C 224.542 285.542,224.488 285.321,224.163 285.118 C 223.739 284.853,235.163 272.656,235.835 272.656 C 235.891 272.656,235.938 279.058,235.938 286.882 M102.734 286.719 C 102.412 286.927,102.324 287.118,102.539 287.142 C 104.660 287.385,104.993 287.342,104.805 286.852 C 104.571 286.241,103.573 286.177,102.734 286.719 M105.078 286.607 C 105.077 287.131,106.625 287.341,107.406 286.922 C 108.309 286.440,108.275 286.418,106.716 286.469 C 105.816 286.499,105.078 286.561,105.078 286.607 M114.073 286.704 C 113.584 287.013,113.602 287.107,114.197 287.336 C 114.582 287.483,115.104 287.394,115.358 287.138 C 115.715 286.778,115.650 286.737,115.073 286.957 C 114.551 287.156,114.410 287.104,114.607 286.785 C 114.946 286.238,114.837 286.221,114.073 286.704 M119.531 286.719 C 119.531 286.934,119.751 287.124,120.020 287.142 C 120.288 287.160,120.903 287.218,121.387 287.272 C 121.870 287.326,122.266 287.203,122.266 286.999 C 122.266 286.795,121.914 286.720,121.485 286.832 C 121.055 286.944,120.605 286.877,120.485 286.682 C 120.191 286.206,119.531 286.231,119.531 286.719 M197.499 286.615 C 197.057 287.057,197.267 287.333,198.047 287.333 C 198.477 287.333,198.828 287.213,198.828 287.067 C 198.828 286.692,197.779 286.335,197.499 286.615 M200.405 286.897 C 200.061 287.311,200.177 287.407,200.962 287.362 C 202.053 287.299,202.264 286.922,201.396 286.588 C 201.089 286.471,200.643 286.610,200.405 286.897 M203.906 286.783 C 203.906 286.949,204.199 286.973,204.556 286.835 C 204.914 286.698,205.106 286.748,204.984 286.945 C 204.744 287.334,207.842 287.573,209.277 287.276 C 209.761 287.176,210.156 286.916,210.156 286.698 C 210.156 286.431,209.908 286.434,209.401 286.705 C 208.441 287.219,206.961 287.266,207.764 286.757 C 208.103 286.542,207.492 286.429,206.104 286.449 C 204.895 286.467,203.906 286.617,203.906 286.783 M212.109 286.956 C 212.109 287.236,212.429 287.343,212.897 287.221 C 214.058 286.917,214.154 286.484,213.061 286.484 C 212.537 286.484,212.109 286.696,212.109 286.956 M214.620 286.906 C 213.959 287.406,213.948 287.477,214.528 287.488 C 214.891 287.494,215.304 287.313,215.446 287.083 C 215.871 286.395,215.423 286.298,214.620 286.906 M216.238 286.674 C 216.121 286.865,216.361 287.109,216.772 287.216 C 217.295 287.353,217.457 287.249,217.312 286.870 C 217.076 286.255,216.556 286.160,216.238 286.674 M78.396 314.703 C 77.980 315.119,78.501 315.606,79.112 315.372 C 79.426 315.251,79.586 314.995,79.467 314.803 C 79.214 314.393,78.749 314.350,78.396 314.703 M115.430 314.844 C 114.742 315.139,114.781 315.183,115.746 315.207 C 116.383 315.223,116.742 315.071,116.602 314.844 C 116.469 314.629,116.327 314.465,116.286 314.481 C 116.245 314.496,115.859 314.659,115.430 314.844 M221.680 314.846 C 221.006 315.137,221.046 315.175,221.973 315.124 C 222.563 315.091,223.047 314.927,223.047 314.759 C 223.047 314.384,222.697 314.406,221.680 314.846 M40.820 332.031 C 40.674 332.493,40.642 332.959,40.749 333.067 C 40.856 333.174,41.064 332.884,41.211 332.422 C 41.358 331.960,41.390 331.494,41.282 331.386 C 41.175 331.279,40.967 331.569,40.820 332.031 M150.532 342.666 C 150.290 343.056,151.147 343.009,152.148 342.576 C 152.814 342.289,152.766 342.248,151.824 342.301 C 151.216 342.335,150.635 342.499,150.532 342.666 M157.031 342.530 C 157.031 342.719,157.328 343.114,157.690 343.409 C 158.265 343.877,158.318 343.861,158.103 343.287 C 157.967 342.925,158.066 342.543,158.323 342.439 C 158.579 342.335,158.394 342.235,157.910 342.218 C 157.427 342.201,157.031 342.342,157.031 342.530 M159.529 342.645 C 159.339 342.952,159.460 343.020,159.897 342.852 C 160.254 342.715,160.547 342.773,160.547 342.981 C 160.547 343.189,160.744 343.359,160.985 343.359 C 161.288 343.359,161.273 343.178,160.938 342.773 C 160.353 342.069,159.910 342.029,159.529 342.645 M162.012 342.446 C 162.280 342.555,162.500 342.892,162.500 343.197 C 162.500 343.501,162.659 343.750,162.854 343.750 C 163.049 343.750,163.116 343.398,163.004 342.969 C 162.891 342.539,162.512 342.201,162.161 342.218 C 161.756 342.238,161.702 342.321,162.012 342.446 " stroke="none" fill="#131313" fill-rule="evenodd"></path><path id="path1" d="M219.141 79.883 C 220.308 81.064,221.350 82.031,221.458 82.031 C 221.565 82.031,220.698 81.064,219.531 79.883 C 218.364 78.701,217.322 77.734,217.214 77.734 C 217.107 77.734,217.974 78.701,219.141 79.883 M32.520 117.066 C 32.896 117.164,33.511 117.164,33.887 117.066 C 34.263 116.968,33.955 116.888,33.203 116.888 C 32.451 116.888,32.144 116.968,32.520 117.066 M40.918 117.085 C 42.046 117.164,43.892 117.164,45.020 117.085 C 46.147 117.006,45.225 116.941,42.969 116.941 C 40.713 116.941,39.790 117.006,40.918 117.085 M47.954 117.073 C 48.440 117.167,49.143 117.163,49.516 117.065 C 49.890 116.967,49.492 116.891,48.633 116.895 C 47.773 116.900,47.468 116.980,47.954 117.073 M52.652 117.086 C 54.003 117.163,56.113 117.162,57.340 117.085 C 58.566 117.008,57.461 116.945,54.883 116.946 C 52.305 116.947,51.301 117.010,52.652 117.086 M63.965 117.083 C 64.878 117.165,66.372 117.165,67.285 117.083 C 68.198 117.001,67.451 116.933,65.625 116.933 C 63.799 116.933,63.052 117.001,63.965 117.083 M85.063 117.073 C 85.549 117.167,86.252 117.163,86.626 117.065 C 86.999 116.967,86.602 116.891,85.742 116.895 C 84.883 116.900,84.577 116.980,85.063 117.073 M88.965 117.073 C 89.448 117.166,90.239 117.166,90.723 117.073 C 91.206 116.979,90.811 116.903,89.844 116.903 C 88.877 116.903,88.481 116.979,88.965 117.073 M101.079 117.073 C 101.565 117.167,102.268 117.163,102.641 117.065 C 103.015 116.967,102.617 116.891,101.758 116.895 C 100.898 116.900,100.593 116.980,101.079 117.073 M107.706 117.079 C 108.400 117.165,109.630 117.167,110.441 117.082 C 111.251 116.997,110.684 116.927,109.180 116.925 C 107.676 116.923,107.013 116.993,107.706 117.079 M120.215 117.088 C 122.202 117.159,125.454 117.159,127.441 117.088 C 129.429 117.017,127.803 116.959,123.828 116.959 C 119.854 116.959,118.228 117.017,120.215 117.088 M132.329 117.073 C 132.815 117.167,133.518 117.163,133.891 117.065 C 134.265 116.967,133.867 116.891,133.008 116.895 C 132.148 116.900,131.843 116.980,132.329 117.073 M137.994 117.077 C 138.587 117.167,139.466 117.165,139.947 117.072 C 140.427 116.979,139.941 116.906,138.867 116.909 C 137.793 116.912,137.400 116.987,137.994 117.077 M144.829 117.073 C 145.315 117.167,146.018 117.163,146.391 117.065 C 146.765 116.967,146.367 116.891,145.508 116.895 C 144.648 116.900,144.343 116.980,144.829 117.073 M150.893 117.086 C 152.136 117.164,154.070 117.163,155.190 117.084 C 156.310 117.006,155.293 116.942,152.930 116.943 C 150.566 116.944,149.650 117.008,150.893 117.086 M161.838 117.089 C 164.375 117.157,168.418 117.157,170.823 117.088 C 173.228 117.020,171.152 116.964,166.211 116.964 C 161.270 116.965,159.302 117.021,161.838 117.089 M194.853 129.590 C 202.442 129.649,214.747 129.649,222.197 129.590 C 229.647 129.530,223.438 129.482,208.398 129.482 C 193.359 129.482,187.264 129.530,194.853 129.590 M235.653 153.125 C 235.653 154.092,235.729 154.487,235.823 154.004 C 235.916 153.521,235.916 152.729,235.823 152.246 C 235.729 151.763,235.653 152.158,235.653 153.125 M53.223 155.367 C 54.458 155.444,56.479 155.444,57.715 155.367 C 58.950 155.289,57.939 155.226,55.469 155.226 C 52.998 155.226,51.987 155.289,53.223 155.367 M62.598 155.367 C 63.833 155.444,65.854 155.444,67.090 155.367 C 68.325 155.289,67.314 155.226,64.844 155.226 C 62.373 155.226,61.362 155.289,62.598 155.367 M90.749 155.371 C 95.436 155.433,102.995 155.433,107.546 155.371 C 112.097 155.308,108.262 155.257,99.023 155.257 C 89.785 155.257,86.062 155.308,90.749 155.371 M123.168 155.370 C 126.135 155.437,130.881 155.437,133.715 155.370 C 136.549 155.303,134.121 155.249,128.320 155.249 C 122.520 155.249,120.201 155.304,123.168 155.370 M170.020 155.370 C 172.544 155.438,176.675 155.438,179.199 155.370 C 181.724 155.302,179.658 155.246,174.609 155.246 C 169.561 155.246,167.495 155.302,170.020 155.370 M184.473 155.347 C 184.849 155.446,185.464 155.446,185.840 155.347 C 186.216 155.249,185.908 155.169,185.156 155.169 C 184.404 155.169,184.097 155.249,184.473 155.347 M189.922 155.369 C 191.791 155.440,194.955 155.440,196.953 155.369 C 198.951 155.298,197.422 155.240,193.555 155.240 C 189.688 155.239,188.053 155.297,189.922 155.369 M201.469 155.354 C 201.955 155.448,202.658 155.444,203.032 155.347 C 203.405 155.249,203.008 155.172,202.148 155.177 C 201.289 155.181,200.983 155.261,201.469 155.354 M214.380 155.370 C 217.669 155.436,222.943 155.436,226.098 155.370 C 229.254 155.305,226.563 155.251,220.117 155.251 C 213.672 155.251,211.090 155.305,214.380 155.370 M232.910 155.358 C 233.501 155.447,234.468 155.447,235.059 155.358 C 235.649 155.268,235.166 155.195,233.984 155.195 C 232.803 155.195,232.319 155.268,232.910 155.358 M249.902 155.361 C 250.601 155.447,251.743 155.447,252.441 155.361 C 253.140 155.274,252.568 155.203,251.172 155.203 C 249.775 155.203,249.204 155.274,249.902 155.361 M256.550 155.361 C 257.252 155.448,258.307 155.446,258.894 155.357 C 259.481 155.268,258.906 155.197,257.617 155.199 C 256.328 155.201,255.848 155.274,256.550 155.361 M261.222 155.360 C 261.915 155.446,263.146 155.448,263.956 155.363 C 264.767 155.279,264.199 155.208,262.695 155.206 C 261.191 155.205,260.528 155.274,261.222 155.360 M143.833 164.355 L 143.750 168.750 152.441 168.660 L 161.133 168.571 152.650 168.457 L 144.167 168.344 144.041 164.153 L 143.916 159.961 143.833 164.355 M58.854 168.620 C 58.711 168.763,58.594 171.693,58.594 175.130 C 58.594 178.568,58.713 181.261,58.859 181.115 C 59.005 180.969,59.098 178.132,59.066 174.811 L 59.006 168.773 64.171 168.651 L 69.336 168.530 64.225 168.445 C 61.414 168.398,58.997 168.477,58.854 168.620 M94.238 168.652 C 100.845 168.712,111.655 168.712,118.262 168.652 C 124.868 168.592,119.463 168.543,106.250 168.543 C 93.037 168.543,87.632 168.592,94.238 168.652 M174.670 168.550 C 174.928 168.809,235.605 168.822,235.863 168.564 C 235.976 168.451,222.210 168.359,205.273 168.359 C 188.337 168.359,174.565 168.445,174.670 168.550 M253.201 168.651 L 257.769 168.774 257.918 170.422 L 258.067 172.070 258.135 170.215 L 258.203 168.359 253.418 168.443 L 248.633 168.527 253.201 168.651 M257.944 183.984 C 257.944 185.596,258.013 186.255,258.097 185.449 C 258.181 184.644,258.181 183.325,258.097 182.520 C 258.013 181.714,257.944 182.373,257.944 183.984 M143.930 200.391 C 143.930 210.596,143.981 214.771,144.043 209.668 C 144.104 204.565,144.104 196.216,144.043 191.113 C 143.981 186.011,143.930 190.186,143.930 200.391 M235.626 250.360 C 235.567 252.801,235.374 253.859,234.878 254.461 L 234.209 255.273 235.090 254.464 C 235.895 253.725,235.960 253.371,235.839 250.363 L 235.706 247.070 235.626 250.360 M351.953 254.028 C 351.953 254.096,352.524 254.667,353.223 255.298 L 354.492 256.445 353.345 255.176 C 352.275 253.992,351.953 253.727,351.953 254.028 M85.717 257.708 C 86.562 258.617,87.339 259.276,87.442 259.173 C 87.546 259.069,87.555 258.940,87.463 258.887 C 87.371 258.833,86.595 258.174,85.738 257.422 L 84.180 256.056 85.717 257.708 M342.724 264.245 C 342.603 264.560,342.595 265.044,342.706 265.319 C 342.816 265.595,342.921 265.438,342.938 264.970 C 342.955 264.502,343.276 264.039,343.652 263.941 C 344.293 263.774,344.292 263.760,343.640 263.717 C 343.257 263.692,342.845 263.930,342.724 264.245 M357.911 270.508 C 357.915 271.367,357.995 271.673,358.089 271.187 C 358.182 270.701,358.179 269.998,358.081 269.624 C 357.983 269.251,357.907 269.648,357.911 270.508 M342.669 271.094 C 342.669 271.846,342.749 272.153,342.847 271.777 C 342.946 271.401,342.946 270.786,342.847 270.410 C 342.749 270.034,342.669 270.342,342.669 271.094 M235.723 287.109 C 235.723 294.736,235.775 297.856,235.839 294.043 C 235.903 290.229,235.903 283.989,235.839 280.176 C 235.775 276.362,235.723 279.482,235.723 287.109 M136.510 296.875 C 136.510 307.939,136.560 312.466,136.621 306.934 C 136.682 301.401,136.682 292.349,136.621 286.816 C 136.560 281.284,136.510 285.811,136.510 296.875 M344.447 292.085 C 345.582 292.164,347.340 292.164,348.353 292.083 C 349.366 292.003,348.438 291.939,346.289 291.940 C 344.141 291.941,343.312 292.006,344.447 292.085 M281.908 318.652 C 286.029 318.715,292.885 318.715,297.142 318.652 C 301.399 318.589,298.027 318.537,289.648 318.537 C 281.270 318.537,277.786 318.589,281.908 318.652 M184.523 333.984 C 184.523 336.455,184.586 337.466,184.664 336.230 C 184.741 334.995,184.741 332.974,184.664 331.738 C 184.586 330.503,184.523 331.514,184.523 333.984 M133.735 334.375 C 133.735 336.416,133.800 337.251,133.881 336.230 C 133.961 335.210,133.961 333.540,133.881 332.520 C 133.800 331.499,133.735 332.334,133.735 334.375 " stroke="none" fill="#3c3b3a" fill-rule="evenodd"></path><path id="path2" d="M104.395 63.182 C 106.489 63.252,109.917 63.252,112.012 63.182 C 114.106 63.112,112.393 63.054,108.203 63.054 C 104.014 63.054,102.300 63.112,104.395 63.182 M123.366 63.183 C 127.515 63.246,134.195 63.246,138.209 63.183 C 142.223 63.120,138.828 63.068,130.664 63.068 C 122.500 63.068,119.216 63.120,123.366 63.183 M146.777 63.173 C 147.476 63.260,148.618 63.260,149.316 63.173 C 150.015 63.087,149.443 63.016,148.047 63.016 C 146.650 63.016,146.079 63.087,146.777 63.173 M151.666 63.171 C 152.259 63.261,153.138 63.258,153.619 63.166 C 154.099 63.073,153.613 62.999,152.539 63.002 C 151.465 63.005,151.072 63.081,151.666 63.171 M159.293 63.180 C 160.644 63.257,162.753 63.256,163.980 63.179 C 165.207 63.102,164.102 63.039,161.523 63.040 C 158.945 63.041,157.941 63.104,159.293 63.180 M169.452 63.182 C 171.235 63.254,174.047 63.254,175.702 63.181 C 177.357 63.108,175.898 63.048,172.461 63.049 C 169.023 63.049,167.669 63.109,169.452 63.182 M182.736 63.182 C 184.949 63.252,188.465 63.252,190.548 63.182 C 192.631 63.111,190.820 63.054,186.523 63.055 C 182.227 63.055,180.522 63.112,182.736 63.182 M195.219 63.167 C 195.705 63.260,196.408 63.257,196.782 63.159 C 197.155 63.061,196.758 62.985,195.898 62.989 C 195.039 62.993,194.733 63.073,195.219 63.167 M200.702 63.182 C 202.485 63.254,205.297 63.254,206.952 63.181 C 208.607 63.108,207.148 63.048,203.711 63.049 C 200.273 63.049,198.919 63.109,200.702 63.182 M211.041 63.171 C 211.634 63.261,212.513 63.258,212.994 63.166 C 213.474 63.073,212.988 62.999,211.914 63.002 C 210.840 63.005,210.447 63.081,211.041 63.171 M90.811 68.066 L 87.695 71.289 90.918 68.173 C 93.911 65.279,94.319 64.844,94.034 64.844 C 93.975 64.844,92.525 66.294,90.811 68.066 M232.031 73.633 C 236.432 78.037,240.120 81.641,240.227 81.641 C 240.335 81.641,236.822 78.037,232.422 73.633 C 228.022 69.229,224.333 65.625,224.226 65.625 C 224.118 65.625,227.631 69.229,232.031 73.633 M86.108 72.754 L 84.961 74.023 86.230 72.876 C 87.414 71.807,87.680 71.484,87.378 71.484 C 87.311 71.484,86.739 72.056,86.108 72.754 M81.641 77.148 C 80.040 78.760,78.818 80.078,78.926 80.078 C 79.033 80.078,80.431 78.760,82.031 77.148 C 83.632 75.537,84.853 74.219,84.746 74.219 C 84.639 74.219,83.241 75.537,81.641 77.148 M99.205 79.199 L 97.070 81.445 99.405 79.297 C 100.689 78.115,101.817 77.104,101.912 77.051 C 102.006 76.997,101.916 76.953,101.712 76.953 C 101.508 76.953,100.380 77.964,99.205 79.199 M128.816 77.236 C 129.518 77.323,130.572 77.321,131.159 77.232 C 131.746 77.143,131.172 77.072,129.883 77.074 C 128.594 77.076,128.113 77.149,128.816 77.236 M160.254 77.222 C 160.630 77.321,161.245 77.321,161.621 77.222 C 161.997 77.124,161.689 77.044,160.938 77.044 C 160.186 77.044,159.878 77.124,160.254 77.222 M74.797 84.082 L 71.289 87.695 74.902 84.188 C 76.890 82.259,78.516 80.633,78.516 80.575 C 78.516 80.291,78.054 80.726,74.797 84.082 M89.499 88.821 C 85.053 93.272,82.407 96.205,82.538 96.536 C 82.707 96.959,82.757 96.949,82.782 96.488 C 82.799 96.168,86.019 92.696,89.937 88.773 C 93.856 84.850,96.975 81.641,96.867 81.641 C 96.760 81.641,93.444 84.872,89.499 88.821 M225.195 85.938 C 226.034 86.797,226.809 87.500,226.916 87.500 C 227.024 87.500,226.425 86.797,225.586 85.938 C 224.747 85.078,223.972 84.375,223.865 84.375 C 223.757 84.375,224.356 85.078,225.195 85.938 M228.451 89.189 C 228.920 89.688,229.171 90.244,229.007 90.424 C 228.844 90.603,228.903 90.641,229.137 90.508 C 229.541 90.278,231.975 92.443,232.013 93.066 C 232.023 93.228,232.101 93.315,232.186 93.262 C 232.270 93.208,232.754 93.509,233.260 93.930 C 233.766 94.352,232.778 93.253,231.064 91.489 C 229.350 89.725,227.869 88.281,227.773 88.281 C 227.677 88.281,227.982 88.690,228.451 89.189 M317.309 96.289 C 317.311 97.578,317.384 98.058,317.471 97.356 C 317.558 96.654,317.556 95.600,317.467 95.013 C 317.377 94.426,317.306 95.000,317.309 96.289 M235.683 105.078 C 235.683 106.904,235.751 107.651,235.833 106.738 C 235.915 105.825,235.915 104.331,235.833 103.418 C 235.751 102.505,235.683 103.252,235.683 105.078 M235.707 115.039 C 235.706 118.691,235.765 120.238,235.837 118.476 C 235.909 116.714,235.910 113.726,235.838 111.836 C 235.766 109.945,235.707 111.387,235.707 115.039 M16.574 130.078 C 16.574 135.127,16.630 137.192,16.698 134.668 C 16.766 132.144,16.766 128.013,16.698 125.488 C 16.630 122.964,16.574 125.029,16.574 130.078 M21.191 143.238 C 21.567 143.336,22.183 143.336,22.559 143.238 C 22.935 143.140,22.627 143.059,21.875 143.059 C 21.123 143.059,20.815 143.140,21.191 143.238 M31.934 143.244 C 32.417 143.338,33.208 143.338,33.691 143.244 C 34.175 143.151,33.779 143.075,32.813 143.075 C 31.846 143.075,31.450 143.151,31.934 143.244 M160.653 160.938 C 160.653 161.904,160.729 162.300,160.823 161.816 C 160.916 161.333,160.916 160.542,160.823 160.059 C 160.729 159.575,160.653 159.971,160.653 160.938 M271.274 177.734 C 271.274 187.510,271.324 191.509,271.386 186.621 C 271.448 181.733,271.448 173.735,271.386 168.848 C 271.324 163.960,271.274 167.959,271.274 177.734 M160.638 164.063 C 160.638 164.814,160.718 165.122,160.816 164.746 C 160.914 164.370,160.914 163.755,160.816 163.379 C 160.718 163.003,160.638 163.311,160.638 164.063 M130.260 189.453 C 130.260 200.947,130.310 205.649,130.371 199.902 C 130.432 194.155,130.432 184.751,130.371 179.004 C 130.310 173.257,130.260 177.959,130.260 189.453 M174.791 189.258 C 174.791 200.430,174.841 204.944,174.902 199.289 C 174.963 193.634,174.963 184.494,174.902 178.977 C 174.841 173.459,174.791 178.086,174.791 189.258 M235.683 181.250 C 235.683 183.076,235.751 183.823,235.833 182.910 C 235.915 181.997,235.915 180.503,235.833 179.590 C 235.751 178.677,235.683 179.424,235.683 181.250 M59.083 181.836 C 59.087 182.695,59.167 183.001,59.261 182.515 C 59.354 182.029,59.351 181.326,59.253 180.952 C 59.155 180.579,59.079 180.977,59.083 181.836 M160.728 200.781 C 160.728 211.201,160.778 215.464,160.840 210.254 C 160.901 205.044,160.901 196.519,160.840 191.309 C 160.778 186.099,160.728 190.361,160.728 200.781 M235.715 195.703 C 235.715 200.752,235.771 202.817,235.839 200.293 C 235.907 197.769,235.907 193.638,235.839 191.113 C 235.771 188.589,235.715 190.654,235.715 195.703 M68.875 205.469 C 68.875 206.865,68.946 207.437,69.033 206.738 C 69.119 206.040,69.119 204.897,69.033 204.199 C 68.946 203.501,68.875 204.072,68.875 205.469 M235.668 208.008 C 235.670 209.297,235.743 209.777,235.830 209.075 C 235.917 208.373,235.915 207.318,235.826 206.731 C 235.737 206.144,235.666 206.719,235.668 208.008 M179.297 209.766 L 177.539 210.039 179.395 210.098 C 180.415 210.130,181.250 209.980,181.250 209.766 C 181.250 209.551,181.206 209.401,181.152 209.434 C 181.099 209.466,180.264 209.615,179.297 209.766 M96.197 210.046 C 96.791 210.136,97.669 210.133,98.150 210.041 C 98.630 209.948,98.145 209.874,97.070 209.877 C 95.996 209.880,95.603 209.956,96.197 210.046 M113.175 210.048 C 113.868 210.134,115.099 210.135,115.909 210.051 C 116.720 209.966,116.152 209.896,114.648 209.894 C 113.145 209.892,112.481 209.961,113.175 210.048 M119.238 210.045 C 119.829 210.135,120.796 210.135,121.387 210.045 C 121.978 209.956,121.494 209.883,120.313 209.883 C 119.131 209.883,118.647 209.956,119.238 210.045 M187.598 210.035 C 187.974 210.133,188.589 210.133,188.965 210.035 C 189.341 209.937,189.033 209.856,188.281 209.856 C 187.529 209.856,187.222 209.937,187.598 210.035 M191.712 210.054 C 192.847 210.133,194.605 210.132,195.619 210.052 C 196.632 209.972,195.703 209.907,193.555 209.908 C 191.406 209.909,190.577 209.975,191.712 210.054 M204.395 210.035 C 204.771 210.133,205.386 210.133,205.762 210.035 C 206.138 209.937,205.830 209.856,205.078 209.856 C 204.326 209.856,204.019 209.937,204.395 210.035 M207.520 210.035 C 207.896 210.133,208.511 210.133,208.887 210.035 C 209.263 209.937,208.955 209.856,208.203 209.856 C 207.451 209.856,207.144 209.937,207.520 210.035 M211.828 210.053 C 212.855 210.134,214.437 210.133,215.344 210.051 C 216.250 209.969,215.410 209.903,213.477 209.904 C 211.543 209.905,210.801 209.972,211.828 210.053 M224.902 210.048 C 225.601 210.135,226.743 210.135,227.441 210.048 C 228.140 209.962,227.568 209.891,226.172 209.891 C 224.775 209.891,224.204 209.962,224.902 210.048 M229.791 210.046 C 230.384 210.136,231.263 210.133,231.744 210.041 C 232.224 209.948,231.738 209.874,230.664 209.877 C 229.590 209.880,229.197 209.956,229.791 210.046 M68.867 214.063 C 68.867 215.244,68.940 215.728,69.030 215.137 C 69.119 214.546,69.119 213.579,69.030 212.988 C 68.940 212.397,68.867 212.881,68.867 214.063 M68.841 219.141 C 68.841 219.893,68.921 220.200,69.019 219.824 C 69.118 219.448,69.118 218.833,69.019 218.457 C 68.921 218.081,68.841 218.389,68.841 219.141 M68.856 223.438 C 68.856 224.404,68.933 224.800,69.026 224.316 C 69.119 223.833,69.119 223.042,69.026 222.559 C 68.933 222.075,68.856 222.471,68.856 223.438 M85.059 224.111 C 85.757 224.197,86.899 224.197,87.598 224.111 C 88.296 224.024,87.725 223.953,86.328 223.953 C 84.932 223.953,84.360 224.024,85.059 224.111 M92.265 224.119 C 94.134 224.190,97.298 224.190,99.297 224.119 C 101.295 224.048,99.766 223.990,95.898 223.990 C 92.031 223.989,90.396 224.047,92.265 224.119 M111.621 224.121 C 116.401 224.183,124.224 224.183,129.004 224.121 C 133.784 224.059,129.873 224.008,120.313 224.008 C 110.752 224.008,106.841 224.059,111.621 224.121 M181.963 224.121 C 191.056 224.179,205.822 224.179,214.775 224.121 C 223.729 224.062,216.289 224.015,198.242 224.015 C 180.195 224.015,172.870 224.063,181.963 224.121 M231.738 224.097 C 232.114 224.196,232.729 224.196,233.105 224.097 C 233.481 223.999,233.174 223.919,232.422 223.919 C 231.670 223.919,231.362 223.999,231.738 224.097 M276.300 225.293 C 291.517 225.350,316.302 225.350,331.378 225.293 C 346.454 225.236,334.004 225.190,303.711 225.190 C 273.418 225.190,261.083 225.236,276.300 225.293 M68.856 227.734 C 68.856 228.701,68.933 229.097,69.026 228.613 C 69.119 228.130,69.119 227.339,69.026 226.855 C 68.933 226.372,68.856 226.768,68.856 227.734 M68.867 235.547 C 68.867 236.729,68.940 237.212,69.030 236.621 C 69.119 236.030,69.119 235.063,69.030 234.473 C 68.940 233.882,68.867 234.365,68.867 235.547 M250.098 239.332 C 250.474 239.430,251.089 239.430,251.465 239.332 C 251.841 239.234,251.533 239.153,250.781 239.153 C 250.029 239.153,249.722 239.234,250.098 239.332 M257.715 239.338 C 258.198 239.431,258.989 239.431,259.473 239.338 C 259.956 239.245,259.561 239.169,258.594 239.169 C 257.627 239.169,257.231 239.245,257.715 239.338 M261.235 239.339 C 261.721 239.432,262.424 239.429,262.798 239.331 C 263.171 239.233,262.773 239.157,261.914 239.161 C 261.055 239.165,260.749 239.245,261.235 239.339 M264.556 239.343 C 265.150 239.433,266.029 239.430,266.509 239.337 C 266.990 239.245,266.504 239.171,265.430 239.174 C 264.355 239.177,263.962 239.253,264.556 239.343 M290.362 239.355 C 302.356 239.413,321.868 239.413,333.721 239.355 C 345.575 239.298,335.762 239.251,311.914 239.251 C 288.066 239.251,278.368 239.298,290.362 239.355 M142.690 240.914 C 143.933 240.992,145.867 240.991,146.987 240.912 C 148.107 240.834,147.090 240.770,144.727 240.771 C 142.363 240.772,141.447 240.836,142.690 240.914 M149.902 240.901 C 150.386 240.994,151.177 240.994,151.660 240.901 C 152.144 240.808,151.748 240.731,150.781 240.731 C 149.814 240.731,149.419 240.808,149.902 240.901 M154.199 240.908 C 154.897 240.994,156.040 240.994,156.738 240.908 C 157.437 240.821,156.865 240.750,155.469 240.750 C 154.072 240.750,153.501 240.821,154.199 240.908 M162.212 240.905 C 162.806 240.995,163.685 240.993,164.166 240.900 C 164.646 240.807,164.160 240.734,163.086 240.737 C 162.012 240.740,161.619 240.816,162.212 240.905 M168.853 240.905 C 169.447 240.995,170.326 240.993,170.806 240.900 C 171.287 240.807,170.801 240.734,169.727 240.737 C 168.652 240.740,168.259 240.816,168.853 240.905 M173.730 240.913 C 174.858 240.992,176.704 240.992,177.832 240.913 C 178.960 240.834,178.037 240.770,175.781 240.770 C 173.525 240.770,172.603 240.834,173.730 240.913 M377.524 264.453 C 377.524 274.229,377.574 278.228,377.636 273.340 C 377.698 268.452,377.698 260.454,377.636 255.566 C 377.574 250.679,377.524 254.678,377.524 264.453 M363.811 250.586 C 363.809 252.520,363.875 253.360,363.957 252.453 C 364.039 251.547,364.040 249.965,363.959 248.938 C 363.879 247.911,363.812 248.652,363.811 250.586 M337.027 250.290 C 338.378 250.366,340.488 250.365,341.715 250.288 C 342.941 250.211,341.836 250.148,339.258 250.149 C 336.680 250.150,335.676 250.213,337.027 250.290 M134.473 254.577 C 135.063 254.666,136.030 254.666,136.621 254.577 C 137.212 254.487,136.729 254.414,135.547 254.414 C 134.365 254.414,133.882 254.487,134.473 254.577 M143.652 254.579 C 144.351 254.666,145.493 254.666,146.191 254.579 C 146.890 254.493,146.318 254.422,144.922 254.422 C 143.525 254.422,142.954 254.493,143.652 254.579 M155.753 254.579 C 156.446 254.665,157.677 254.667,158.487 254.582 C 159.298 254.497,158.730 254.427,157.227 254.425 C 155.723 254.423,155.060 254.493,155.753 254.579 M163.590 254.586 C 164.941 254.663,167.050 254.662,168.277 254.585 C 169.504 254.508,168.398 254.445,165.820 254.446 C 163.242 254.447,162.238 254.510,163.590 254.586 M172.965 254.586 C 174.316 254.663,176.425 254.662,177.652 254.585 C 178.879 254.508,177.773 254.445,175.195 254.446 C 172.617 254.447,171.613 254.510,172.965 254.586 M229.297 259.570 C 227.696 261.182,226.475 262.500,226.582 262.500 C 226.689 262.500,228.087 261.182,229.688 259.570 C 231.288 257.959,232.510 256.641,232.402 256.641 C 232.295 256.641,230.897 257.959,229.297 259.570 M89.063 260.742 C 89.791 261.494,90.476 262.109,90.583 262.109 C 90.690 262.109,90.182 261.494,89.453 260.742 C 88.724 259.990,88.040 259.375,87.933 259.375 C 87.825 259.375,88.334 259.990,89.063 260.742 M72.971 264.963 C 74.314 266.318,75.364 267.504,75.304 267.600 C 75.244 267.695,75.267 267.731,75.355 267.679 C 75.442 267.627,75.794 267.793,76.136 268.047 C 76.478 268.301,75.444 267.157,73.838 265.504 C 72.232 263.852,70.831 262.500,70.724 262.500 C 70.618 262.500,71.629 263.608,72.971 264.963 M91.406 263.013 C 91.406 263.080,91.978 263.651,92.676 264.282 L 93.945 265.430 92.798 264.160 C 91.729 262.977,91.406 262.711,91.406 263.013 M220.110 268.848 L 216.211 272.852 220.215 268.953 C 223.934 265.331,224.396 264.844,224.114 264.844 C 224.056 264.844,222.254 266.646,220.110 268.848 M96.289 267.969 C 97.565 269.258,98.696 270.313,98.804 270.313 C 98.911 270.313,97.955 269.258,96.680 267.969 C 95.404 266.680,94.273 265.625,94.165 265.625 C 94.058 265.625,95.013 266.680,96.289 267.969 M80.273 272.266 C 82.198 274.199,83.861 275.781,83.968 275.781 C 84.076 275.781,82.589 274.199,80.664 272.266 C 78.739 270.332,77.077 268.750,76.969 268.750 C 76.862 268.750,78.349 270.332,80.273 272.266 M344.638 270.313 C 344.638 271.279,344.714 271.675,344.807 271.191 C 344.900 270.708,344.900 269.917,344.807 269.434 C 344.714 268.950,344.638 269.346,344.638 270.313 M329.794 271.875 C 329.794 272.842,329.870 273.237,329.963 272.754 C 330.056 272.271,330.056 271.479,329.963 270.996 C 329.870 270.513,329.794 270.908,329.794 271.875 M248.919 272.266 C 248.919 273.018,248.999 273.325,249.097 272.949 C 249.196 272.573,249.196 271.958,249.097 271.582 C 248.999 271.206,248.919 271.514,248.919 272.266 M105.578 272.553 C 106.605 272.634,108.187 272.633,109.094 272.551 C 110.000 272.469,109.160 272.403,107.227 272.404 C 105.293 272.405,104.551 272.472,105.578 272.553 M113.175 272.548 C 113.868 272.634,115.099 272.635,115.909 272.551 C 116.720 272.466,116.152 272.396,114.648 272.394 C 113.145 272.392,112.481 272.461,113.175 272.548 M119.238 272.545 C 119.829 272.635,120.796 272.635,121.387 272.545 C 121.978 272.456,121.494 272.383,120.313 272.383 C 119.131 272.383,118.647 272.456,119.238 272.545 M129.395 272.535 C 129.771 272.633,130.386 272.633,130.762 272.535 C 131.138 272.437,130.830 272.356,130.078 272.356 C 129.326 272.356,129.019 272.437,129.395 272.535 M205.766 272.542 C 206.252 272.635,206.955 272.632,207.329 272.534 C 207.702 272.436,207.305 272.360,206.445 272.364 C 205.586 272.368,205.280 272.448,205.766 272.542 M208.887 272.541 C 209.370 272.634,210.161 272.634,210.645 272.541 C 211.128 272.448,210.732 272.372,209.766 272.372 C 208.799 272.372,208.403 272.448,208.887 272.541 M231.229 277.246 L 229.883 278.711 231.348 277.365 C 232.153 276.624,232.813 275.965,232.813 275.900 C 232.813 275.602,232.482 275.883,231.229 277.246 M86.914 278.906 C 88.406 280.410,89.715 281.641,89.823 281.641 C 89.930 281.641,88.797 280.410,87.305 278.906 C 85.812 277.402,84.503 276.172,84.396 276.172 C 84.289 276.172,85.422 277.402,86.914 278.906 M248.919 278.125 C 248.919 278.877,248.999 279.185,249.097 278.809 C 249.196 278.433,249.196 277.817,249.097 277.441 C 248.999 277.065,248.919 277.373,248.919 278.125 M363.763 278.906 C 363.763 279.658,363.843 279.966,363.941 279.590 C 364.039 279.214,364.039 278.599,363.941 278.223 C 363.843 277.847,363.763 278.154,363.763 278.906 M329.813 282.031 C 329.813 283.428,329.883 283.999,329.970 283.301 C 330.057 282.603,330.057 281.460,329.970 280.762 C 329.883 280.063,329.813 280.635,329.813 282.031 M353.302 282.129 L 351.758 283.789 353.418 282.245 C 354.962 280.809,355.258 280.469,354.962 280.469 C 354.898 280.469,354.151 281.216,353.302 282.129 M225.391 283.008 C 224.442 283.975,223.753 284.766,223.861 284.766 C 223.968 284.766,224.832 283.975,225.781 283.008 C 226.730 282.041,227.419 281.250,227.311 281.250 C 227.204 281.250,226.339 282.041,225.391 283.008 M90.951 282.939 C 91.420 283.438,91.715 283.966,91.605 284.111 C 91.496 284.256,91.522 284.289,91.663 284.183 C 91.805 284.078,92.200 284.202,92.542 284.459 C 92.884 284.716,92.558 284.275,91.818 283.479 C 91.078 282.683,90.388 282.031,90.285 282.031 C 90.182 282.031,90.482 282.440,90.951 282.939 M248.919 284.766 C 248.919 285.518,248.999 285.825,249.097 285.449 C 249.196 285.073,249.196 284.458,249.097 284.082 C 248.999 283.706,248.919 284.014,248.919 284.766 M97.956 286.221 C 98.658 286.308,99.713 286.306,100.300 286.217 C 100.887 286.127,100.313 286.056,99.023 286.059 C 97.734 286.061,97.254 286.134,97.956 286.221 M101.640 286.145 C 101.918 286.424,109.400 286.433,109.678 286.156 C 109.798 286.036,107.992 285.938,105.664 285.938 C 103.337 285.938,101.526 286.031,101.640 286.145 M112.800 286.221 C 113.502 286.308,114.557 286.306,115.144 286.217 C 115.731 286.127,115.156 286.056,113.867 286.059 C 112.578 286.061,112.098 286.134,112.800 286.221 M203.522 286.621 C 203.526 287.073,203.627 287.149,203.820 286.846 C 203.980 286.593,204.813 286.315,205.669 286.228 C 207.212 286.070,207.209 286.068,205.371 286.003 C 203.837 285.949,203.517 286.056,203.522 286.621 M208.592 286.227 C 209.343 286.318,210.182 286.578,210.457 286.806 C 210.732 287.034,211.069 287.108,211.207 286.970 C 211.345 286.832,211.209 286.716,210.905 286.713 C 210.449 286.708,210.455 286.640,210.938 286.328 C 211.350 286.061,210.888 285.966,209.375 286.006 C 207.814 286.047,207.600 286.108,208.592 286.227 M212.207 286.207 C 212.583 286.305,213.198 286.305,213.574 286.207 C 213.950 286.109,213.643 286.028,212.891 286.028 C 212.139 286.028,211.831 286.109,212.207 286.207 M215.527 286.220 C 216.226 286.307,217.368 286.307,218.066 286.220 C 218.765 286.133,218.193 286.063,216.797 286.063 C 215.400 286.063,214.829 286.133,215.527 286.220 M342.631 287.012 C 342.675 287.898,342.714 287.936,342.851 287.230 C 342.972 286.608,343.358 286.331,344.262 286.218 C 345.459 286.069,345.450 286.060,344.043 286.000 C 342.679 285.942,342.582 286.011,342.631 287.012 M248.919 290.625 C 248.919 291.377,248.999 291.685,249.097 291.309 C 249.196 290.933,249.196 290.317,249.097 289.941 C 248.999 289.565,248.919 289.873,248.919 290.625 M248.940 293.945 C 248.943 295.020,249.019 295.413,249.108 294.819 C 249.198 294.225,249.196 293.346,249.103 292.866 C 249.010 292.385,248.937 292.871,248.940 293.945 M329.799 293.945 C 329.802 295.020,329.878 295.413,329.968 294.819 C 330.058 294.225,330.055 293.346,329.962 292.866 C 329.870 292.385,329.796 292.871,329.799 293.945 M55.466 317.090 L 42.773 329.883 55.566 317.190 C 62.603 310.209,68.359 304.452,68.359 304.397 C 68.359 304.121,67.263 305.201,55.466 317.090 M345.996 305.367 C 347.339 305.444,349.536 305.444,350.879 305.367 C 352.222 305.291,351.123 305.229,348.438 305.229 C 345.752 305.229,344.653 305.291,345.996 305.367 M255.078 309.497 C 255.078 309.564,255.649 310.136,256.348 310.767 L 257.617 311.914 256.470 310.645 C 255.400 309.461,255.078 309.195,255.078 309.497 M79.600 314.349 C 80.519 314.432,81.925 314.430,82.725 314.346 C 83.525 314.263,82.773 314.195,81.055 314.196 C 79.336 314.198,78.681 314.267,79.600 314.349 M85.254 314.332 C 85.630 314.430,86.245 314.430,86.621 314.332 C 86.997 314.234,86.689 314.153,85.938 314.153 C 85.186 314.153,84.878 314.234,85.254 314.332 M108.487 314.344 C 109.181 314.431,110.411 314.432,111.222 314.348 C 112.032 314.263,111.465 314.192,109.961 314.191 C 108.457 314.189,107.794 314.258,108.487 314.344 M121.484 314.212 C 121.484 314.295,121.924 314.446,122.461 314.549 C 122.998 314.651,123.438 314.584,123.438 314.399 C 123.438 314.214,122.998 314.063,122.461 314.063 C 121.924 314.063,121.484 314.130,121.484 314.212 M222.563 314.339 C 223.049 314.432,223.752 314.429,224.126 314.331 C 224.499 314.233,224.102 314.157,223.242 314.161 C 222.383 314.165,222.077 314.245,222.563 314.339 M229.004 314.332 C 229.380 314.430,229.995 314.430,230.371 314.332 C 230.747 314.234,230.439 314.153,229.688 314.153 C 228.936 314.153,228.628 314.234,229.004 314.332 M240.430 314.453 C 241.505 314.915,241.887 314.915,241.602 314.453 C 241.469 314.238,240.975 314.075,240.504 314.090 C 239.679 314.116,239.676 314.129,240.430 314.453 M65.818 326.270 L 55.273 336.914 65.918 326.370 C 75.810 316.571,76.738 315.625,76.462 315.625 C 76.407 315.625,71.617 320.415,65.818 326.270 M177.051 316.676 C 177.427 316.774,178.042 316.774,178.418 316.676 C 178.794 316.577,178.486 316.497,177.734 316.497 C 176.982 316.497,176.675 316.577,177.051 316.676 M146.238 324.219 C 146.238 326.475,146.303 327.397,146.382 326.270 C 146.461 325.142,146.461 323.296,146.382 322.168 C 146.303 321.040,146.238 321.963,146.238 324.219 M152.441 328.808 C 155.610 328.873,160.796 328.873,163.965 328.808 C 167.134 328.742,164.541 328.688,158.203 328.688 C 151.865 328.688,149.272 328.742,152.441 328.808 M277.832 332.323 C 281.216 332.389,286.753 332.389,290.137 332.323 C 293.521 332.258,290.752 332.205,283.984 332.205 C 277.217 332.205,274.448 332.258,277.832 332.323 M298.942 332.321 C 300.401 332.397,302.686 332.396,304.020 332.320 C 305.354 332.244,304.160 332.182,301.367 332.183 C 298.574 332.184,297.483 332.246,298.942 332.321 M41.565 338.672 C 41.565 342.217,41.624 343.667,41.697 341.895 C 41.769 340.122,41.769 337.222,41.697 335.449 C 41.624 333.677,41.565 335.127,41.565 338.672 M55.212 341.211 C 55.213 342.930,55.282 343.584,55.365 342.665 C 55.447 341.747,55.446 340.340,55.362 339.540 C 55.278 338.740,55.211 339.492,55.212 341.211 M46.777 348.333 C 47.690 348.415,49.185 348.415,50.098 348.333 C 51.011 348.251,50.264 348.183,48.438 348.183 C 46.611 348.183,45.864 348.251,46.777 348.333 " stroke="none" fill="#4c4c48" fill-rule="evenodd"></path><path id="path3" d="M0.000 200.000 L 0.000 400.000 200.098 399.903 L 400.195 399.805 200.293 399.707 L 0.391 399.609 0.391 200.000 L 0.391 0.391 199.971 0.391 C 389.720 0.391,399.561 0.424,399.731 1.074 C 399.865 1.589,399.921 1.540,399.955 0.879 L 400.000 0.000 200.000 0.000 L 0.000 0.000 0.000 200.000 " stroke="none" fill="#8e8e8e" fill-rule="evenodd"></path><path id="path4" d="M235.659 126.367 C 235.662 127.441,235.737 127.834,235.827 127.241 C 235.917 126.647,235.915 125.768,235.822 125.288 C 235.729 124.807,235.656 125.293,235.659 126.367 M181.349 127.539 C 181.353 128.398,181.433 128.704,181.526 128.218 C 181.620 127.732,181.616 127.029,181.518 126.656 C 181.421 126.282,181.344 126.680,181.349 127.539 M26.079 143.245 C 26.565 143.338,27.268 143.335,27.641 143.237 C 28.015 143.139,27.617 143.063,26.758 143.067 C 25.898 143.072,25.593 143.152,26.079 143.245 M42.285 143.261 C 46.743 143.324,54.038 143.324,58.496 143.261 C 62.954 143.199,59.307 143.147,50.391 143.147 C 41.475 143.147,37.827 143.199,42.285 143.261 M90.933 143.258 C 92.284 143.335,94.394 143.334,95.621 143.257 C 96.848 143.180,95.742 143.117,93.164 143.118 C 90.586 143.119,89.582 143.182,90.933 143.258 M98.112 143.165 C 98.370 143.422,191.472 143.424,191.729 143.167 C 191.838 143.058,170.775 142.969,144.922 142.969 C 119.069 142.969,98.005 143.057,98.112 143.165 M195.233 143.260 C 197.016 143.332,199.829 143.332,201.483 143.259 C 203.138 143.186,201.680 143.126,198.242 143.127 C 194.805 143.127,193.451 143.187,195.233 143.260 M208.301 143.260 C 210.396 143.330,213.823 143.330,215.918 143.260 C 218.013 143.190,216.299 143.132,212.109 143.132 C 207.920 143.132,206.206 143.190,208.301 143.260 M223.554 143.260 C 225.445 143.332,228.433 143.331,230.195 143.259 C 231.957 143.187,230.410 143.128,226.758 143.129 C 223.105 143.129,221.664 143.188,223.554 143.260 M235.683 146.875 C 235.683 148.701,235.751 149.448,235.833 148.535 C 235.915 147.622,235.915 146.128,235.833 145.215 C 235.751 144.302,235.683 145.049,235.683 146.875 M257.963 176.563 C 257.963 179.248,258.025 180.347,258.102 179.004 C 258.178 177.661,258.178 175.464,258.102 174.121 C 258.025 172.778,257.963 173.877,257.963 176.563 M235.638 185.547 C 235.638 186.299,235.718 186.606,235.816 186.230 C 235.914 185.854,235.914 185.239,235.816 184.863 C 235.718 184.487,235.638 184.795,235.638 185.547 M235.710 231.836 C 235.710 235.918,235.768 237.535,235.838 235.429 C 235.909 233.323,235.908 229.983,235.838 228.007 C 235.767 226.031,235.709 227.754,235.710 231.836 M255.176 239.332 C 255.552 239.430,256.167 239.430,256.543 239.332 C 256.919 239.234,256.611 239.153,255.859 239.153 C 255.107 239.153,254.800 239.234,255.176 239.332 M235.664 241.406 C 235.664 242.588,235.737 243.071,235.827 242.480 C 235.916 241.890,235.916 240.923,235.827 240.332 C 235.737 239.741,235.664 240.225,235.664 241.406 M132.520 240.894 C 132.896 240.993,133.511 240.993,133.887 240.894 C 134.263 240.796,133.955 240.716,133.203 240.716 C 132.451 240.716,132.144 240.796,132.520 240.894 M137.994 240.905 C 138.587 240.995,139.466 240.993,139.947 240.900 C 140.427 240.807,139.941 240.734,138.867 240.737 C 137.793 240.740,137.400 240.816,137.994 240.905 M158.697 240.905 C 159.291 240.995,160.169 240.993,160.650 240.900 C 161.130 240.807,160.645 240.734,159.570 240.737 C 158.496 240.740,158.103 240.816,158.697 240.905 M68.841 254.297 C 68.841 255.049,68.921 255.356,69.019 254.980 C 69.118 254.604,69.118 253.989,69.019 253.613 C 68.921 253.237,68.841 253.545,68.841 254.297 M180.966 278.125 C 180.966 279.092,181.042 279.487,181.135 279.004 C 181.228 278.521,181.228 277.729,181.135 277.246 C 181.042 276.763,180.966 277.158,180.966 278.125 M181.012 285.938 C 181.012 288.838,181.074 290.024,181.149 288.574 C 181.224 287.124,181.224 284.751,181.149 283.301 C 181.074 281.851,181.012 283.037,181.012 285.938 M342.669 289.063 C 342.669 289.814,342.749 290.122,342.847 289.746 C 342.946 289.370,342.946 288.755,342.847 288.379 C 342.749 288.003,342.669 288.311,342.669 289.063 M181.029 303.125 C 181.029 308.604,181.084 310.845,181.151 308.105 C 181.218 305.366,181.218 300.884,181.151 298.145 C 181.084 295.405,181.029 297.646,181.029 303.125 M116.704 314.339 C 117.190 314.432,117.893 314.429,118.266 314.331 C 118.640 314.233,118.242 314.157,117.383 314.161 C 116.523 314.165,116.218 314.245,116.704 314.339 M207.329 314.339 C 207.815 314.432,208.518 314.429,208.891 314.331 C 209.265 314.233,208.867 314.157,208.008 314.161 C 207.148 314.165,206.843 314.245,207.329 314.339 M210.454 314.339 C 210.940 314.432,211.643 314.429,212.016 314.331 C 212.390 314.233,211.992 314.157,211.133 314.161 C 210.273 314.165,209.968 314.245,210.454 314.339 M232.329 314.339 C 232.815 314.432,233.518 314.429,233.891 314.331 C 234.265 314.233,233.867 314.157,233.008 314.161 C 232.148 314.165,231.843 314.245,232.329 314.339 M123.145 322.461 C 123.150 323.320,123.230 323.626,123.323 323.140 C 123.417 322.654,123.413 321.951,123.315 321.577 C 123.217 321.204,123.141 321.602,123.145 322.461 " stroke="none" fill="#444344" fill-rule="evenodd"></path></g></svg>